# xmcd
#
# Track frame offsets: 
#        183
#        18440
#        32265
#        47118
#        60603
#        75208
#        89708
#        102520
#        121538
#        138643
#        160965
#        177725
#        195343
#        211408
#
# Disc length: 3057 seconds
#
# Revision: 13
# Processed by: cddbd v1.5.2PL0 Copyright (c) Steve Scherf et al.
# Submitted via: ExactAudioCopy v1.3
#
DISCID=b60bef0e
DTITLE=Paul McCartney - Choba B CCCP
DYEAR=1988
DGENRE=Rock
TTITLE0=Kansas City
TTITLE1=Twenty Flight Rock
TTITLE2=Lawdy Miss Clawdy
TTITLE3=I´m In Love Again
TTITLE4=Bring It On Home To Me
TTITLE5=Lucille
TTITLE6=Don´t Get Around Much Anymore
TTITLE7=I´m Gonna Be A Wheel Someday
TTITLE8=That´s All Right Mama
TTITLE9=Summertime
TTITLE10=Ain´t That A Shame
TTITLE11=Crackin´ Up
TTITLE12=Just Because
TTITLE13=Midnight Special
EXTD=YEAR: 1988
EXTT0=
EXTT1=
EXTT2=
EXTT3=
EXTT4=
EXTT5=
EXTT6=
EXTT7=
EXTT8=
EXTT9=
EXTT10=
EXTT11=
EXTT12=
EXTT13=
PLAYORDER=
